name processed_emg_signals
nRows=82
nColumns=7
 
endheader
time	RGLTMED	RRF	RADDLONG	RST	RTA	RGM
1.0070000000000001	0.651758319532069	0.0926793232191642	0.2899300564427486	0.0917687154917908	0.0837802926736968	0.1900918223533471
1.008	0.6413303737385679	0.0899596957511272	0.2970224285909162	0.0936975370761738	0.0862060650627718	0.191939421482145
1.0090000000000001	0.6307905010559105	0.0872655477570814	0.30437241428321	0.0956845401667565	0.088823539451602	0.1937763313918333
1.01	0.6201477685226574	0.0845985599358688	0.3119775559012858	0.0977295554980974	0.0916358544455078	0.1955999453122601
1.0110000000000001	0.6094112867833166	0.0819603789250457	0.3198350089523995	0.0998323383652601	0.094646026046537	0.1974076501575075
1.012	0.5985901964070662	0.0793526166880111	0.327941540334389	0.1019925670576962	0.0978569404817275	0.1991968304509654
1.0130000000000001	0.5876936542994993	0.0767768499887988	0.3362935271696627	0.1042098413794034	0.101271347042582	0.2009648722929186
1.014	0.5767308202390778	0.0742346199514832	0.3448869562205451	0.1064836812612364	0.1048918509474651	0.2027091673629124
1.0150000000000001	0.5657108435688278	0.0717274317011344	0.3537174238982266	0.1088135254708896	0.1087209062387468	0.2044271169492476
1.016	0.5546428500723791	0.0692567540829515	0.3627801368766597	0.1111987304258219	0.1127608087265193	0.2061161359983629
1.0170000000000001	0.5435359290617657	0.0668240194562556	0.3720699133225287	0.1136385691141165	0.1170136889909214	0.2077736571773789
1.018	0.5323991207024455	0.0644306235598047	0.3815811847516914	0.1161322301280758	0.1214815054551595	0.2093971349436433
1.0190000000000001	0.5212414035991383	0.0620779254450115	0.3913079985221862	0.1186788168152166	0.1261660375415057	0.2109840496155312
1.02	0.5100716826642111	0.0597672474734755	0.4012440209726689	0.1212773465511466	0.1310688789227245	0.2125319114387362
1.0210000000000001	0.4988987772887942	0.0574998753752032	0.4113825412150144	0.123926750138784	0.1361914308813204	0.2140382646422088
1.022	0.487731409835297	0.0552770583638446	0.42171647558842	0.1266258713382983	0.1415348957891965	0.2155006914775979
1.0230000000000001	0.4765781944686905	0.0531000093052709	0.4322383727815594	0.1293734665320045	0.1471002707203082	0.2169168162357681
1.024	0.4654476263426604	0.0509699049357614	0.4429404196278071	0.1321682045284855	0.1528883412093757	0.2182843092336786
1.025	0.4543480711554768	0.0488878861262202	0.4538144475775253	0.1350086665099344	0.1588996751699399	0.2196008907644941
1.026	0.4432877550893692	0.0468550581887982	0.464851939850093	0.1378933461268021	0.1651346169856246	0.2208643350032905
1.027	0.4322747551460416	0.0448724912223775	0.4760440392671393	0.1408206497434986	0.1715932817886435	0.2220724738601847
1.028	0.4213169898900674	0.0429412204935087	0.4873815567669034	0.1437888968390262	0.1782755499398515	0.2232232007721463
1.029	0.410422210610668	0.0410622468492268	0.4988549805983135	0.1467963205662218	0.1851810617246212	0.2243144744242247
1.03	0.3995979929111738	0.0392365371582867	0.5104544861915981	0.1498410684731665	0.1923092122790217	0.22534432239067
1.031	0.3888517287340883	0.0374650247771872	0.5221699467011758	0.1529212033901257	0.199659146760662	0.2263108446863548
1.032	0.378190618828381	0.0357486100372621	0.5339909442148066	0.1560347044849814	0.2072297557784599	0.2272122172190361
1.033	0.3676216656645955	0.0340881607491964	0.5459067816218051	0.1591794684899375	0.2150196710953564	0.2280466951334509
1.034	0.3571516668023733	0.0324845127211143	0.5579064951313261	0.1623533111017161	0.2230272616178714	0.228812616038752
1.035	0.3467872087141795	0.0309384702865627	0.5699788674306291	0.1655539685573673	0.2312506296862297	0.2295084031113616
1.036	0.3365346610681904	0.0294508068385804	0.5821124414711224	0.1687790993872458	0.2396876076788398	0.2301325680656721
1.037	0.3264001714722755	0.0280222653662965	0.5942955348691104	0.1720262863465846	0.2483357549446182	0.2306837139851951
1.038	0.3163896606801568	0.0266535589904766	0.6065162549060975	0.1752930385266504	0.2571923550765091	0.2311605380067179
1.039	0.3065088182597459	0.0253453714946377	0.6187625141125146	0.1785767936461388	0.2662544135393562	0.2315618338500366
1.04	0.2967630987227674	0.0240983578483515	0.6310220464167139	0.1818749205230159	0.2755186556651024	0.2318864941860175
1.041	0.2871577181137843	0.0229131447193776	0.6432824238400994	0.1851847217265436	0.2849815250281634	0.2321335128361657
1.042	0.2776976510556718	0.0217903309714145	0.6555310737171208	0.1885034364085526	0.2946391822134575	0.2323019867972106
1.043	0.2683876282477309	0.0207304881441501	0.6677552964175458	0.191828243312478	0.3044875039893063	0.2323911180844796
1.044	0.2592321344115239	0.019734160912419	0.6799422835460638	0.1951562639580178	0.3145220828966946	0.2324002153878976
1.045	0.2502354066788871	0.0188018675213384	0.6920791365927104	0.1984845659986381	0.3247382272658765	0.2323286955342001
1.046	0.2414014334156544	0.0179341001943211	0.7041528860048956	0.2018101667485813	0.335130961670471	0.2321760847487724
1.047	0.2327339534739179	0.0171313255110728	0.7161505106504358	0.2051300368753982	0.3456950278284439	0.2319420197102458
1.048	0.2242364558648659	0.016393984752914	0.7280589576378034	0.2084411042533666	0.3564248859586464	0.2316262483909202
1.049	0.2159121798433735	0.0157224942131017	0.739865162458524	0.2117402579725897	0.3673147166007767	0.2312286306760757
1.05	0.2077641153947529	0.0151172454700586	0.7515560694140835	0.215024352497944	0.3783584229059492	0.2307491387553289
1.051	0.1997950041133017	0.014578605621937	0.7631186522881732	0.2182902119713747	0.3895496334043865	0.2301878572795866
1.052	0.1920073404616631	0.0141069174811133	0.7745399352237501	0.221534634650654	0.4008817052559467	0.2295449832777199
1.053	0.184403373399378	0.0137024997275052	0.7858070137626575	0.22475439747695	0.4123477279883911	0.2288208258279449
1.054	0.176985108368458	0.0133656470198369	0.7969070760048048	0.2279462607630646	0.4239405277275228	0.2280158054797261
1.055	0.1697543096231829	0.0130966300640641	0.8078274238427349	0.2311069729933913	0.4356526719225075	0.2271304534231551
1.056	0.1627125028908311	0.0128956956383435	0.8185554942266181	0.2342332757259201	0.4474764745691128	0.226165410403641
1.057	0.1558609783494788	0.0127630665740105	0.8290788804155733	0.2373219085859782	0.4594040019331556	0.2251214253808386
1.058	0.1492007939084569	0.0126989416921462	0.8393853531714907	0.2403696143405268	0.4714270787764965	0.2239993539319212
1.059	0.1427327787766989	0.0127034956955262	0.8494628818526653	0.243373144041265	0.4835372950878829	0.2228001564011062
1.06	0.1364575373037964	0.0127768790156913	0.8592996553659574	0.2463292622239596	0.4957260133208495	0.2215248957995675
1.061	0.1303754530783852	0.0129192176151689	0.8688841029369582	0.2492347521507879	0.5079843761407717	0.2201747354625682
1.062	0.1244866932683459	0.0131306127448381	0.8782049146581296	0.2520864210817115	0.5203033146826821	0.218750936473289
1.063	0.1187912131873937	0.0134111406566404	0.8872510617747166	0.2548811055603956	0.5326735573210029	0.2172548548653083
1.064	0.1132887610726165	0.0137608522719845	0.8960118166682725	0.2576156766995521	0.5450856389515408	0.2156879386175298
1.065	0.1079788830574379	0.0141797728062611	0.9044767724965126	0.260287045450318	0.5575299107850163	0.2140517244567594
1.066	0.1028609283244399	0.0146679013499521	0.9126358624479544	0.2628921678396139	0.569996550650062	0.2123478344840266
1.067	0.0979340544224323	0.0152252104069437	0.9204793785679676	0.2654280501590721	0.582475573801996	0.2105779726414081
1.068	0.0931972327324832	0.015851645390701	0.9279979901123512	0.2678917540884782	0.5949568442318811	0.208743921036338
1.069	0.0886492540681498	0.0165471240791331	0.93518276138291	0.2702804017361175	0.6074300864686201	0.2068475361401531
1.07	0.0842887343960786	0.0173115360291272	0.9420251689976488	0.2725911805783383	0.6198848978649841	0.2048907448772363
1.071	0.0801141206640083	0.0181447419519232	0.948517118545608	0.2748213482809523	0.6323107613570337	0.2028755406206756
1.072	0.0761236967241843	0.0190465730506217	0.954650960574912	0.2769682373860655	0.6446970586848828	0.2008039791098916
1.073	0.0723155893409694	0.020016830321338	0.9604195058620122	0.2790292598496629	0.6570330840616204	0.1986781743052469
1.074	0.0686877742719381	0.0210552838196685	0.9658160399112612	0.2810019114171338	0.6693080582759874	0.1965002941939824
1.075	0.0652380824122613	0.022161671894328	0.9708343366357352	0.2828837758265884	0.6815111432128428	0.1942725565612398
1.076	0.0619642059925265	0.0233357003899941	0.9754686711723918	0.2846725288323635	0.6936314567737035	0.1919972247391697
1.077	0.0588637048204214	0.0245770418215517	0.9797138317862586	0.2863659420437573	0.7056580881773971	0.189676603346591
1.078	0.0559340125567991	0.0258853345219373	0.9835651308207412	0.2879618865763972	0.7175801136186303	0.1873130340309747
1.079	0.0531724430167567	0.0272601817660831	0.9870184146545236	0.289458336515514	0.7293866122599953	0.1849088912239532
1.08	0.0505761964862186	0.0287011508734417	0.9900700726284838	0.2908533721913968	0.7410666825309593	0.1824665779209833
1.081	0.0481423660444384	0.0302077722920071	0.9927170449095388	0.2921451832680506	0.7526094587052435	0.1799885214950675
1.082	0.0458679438828301	0.0317795386669073	0.9949568292606588	0.2933320716459424	0.7640041277259346	0.1774771695538675
1.083	0.0437498276103607	0.0334159038968752	0.9967874866892428	0.2944124541800758	0.7752399462455152	0.1749349858489127
1.084	0.0417848265357478	0.0351162821820423	0.9982076459480884	0.2953848652140803	0.7863062578456607	0.1723644462449945
1.085	0.039969667916598	0.0368800470667041	0.999216506865865	0.2962479589308393	0.7971925103992397	0.1697680347572572
1.086	0.0383010031656334	0.0387065304806564	0.9998138424864832	0.2970005115194865	0.8078882735342897	0.1671482396628976
1.087	0.0367754140043753	0.0405950217829423	1.0	0.2976414231582283	0.8183832561573964	0.1645075496937615
1.088	0.0353894185551361	0.0425447668117523	0.9997759004512112	0.2981697198116559	0.8286673239913286	0.1618484503155718
